<svg width="445" height="130" xmlns="http://www.w3.org/2000/svg">
 <defs>
  <filter id="svg_32_blur" x="-50%" y="-50%" width="200%" height="200%">
   <feGaussianBlur in="SourceGraphic" stdDeviation="8"/>
  </filter>
  <filter id="svg_33_blur" x="-50%" y="-50%" width="200%" height="200%">
   <feGaussianBlur in="SourceGraphic" stdDeviation="10"/>
  </filter>
 </defs>
 <g>
  <title>Layer 1</title>
  <path fill="none" stroke="#000" opacity="NaN" d="m-55.38798,-88.28707c0,63.67524 52.56412,30.76924 52.47852,30.42725c0.0856,0.342 20.17108,21.70952 31.70954,14.01721c11.53847,-7.69231 20.94018,-5.55556 30.34189,-30.76924c9.40171,-25.21368 -56.41028,40.5983 -56.41028,40.17095c0,-0.42735 -3.4188,0.8547 -8.11966,5.55556c-4.70086,4.70086 -39.31625,52.13677 -22.22223,30.76924c17.09402,-21.36753 139.74364,-75.64105 138.88894,-73.07695c-0.8547,2.5641 -166.66672,-80.76926 -166.66672,-17.09402z" id="svg_13"/>
  <path fill="none" opacity="NaN" d="m29.35889,69.62572c-13.06758,41.35107 44.96527,15.01225 44.96527,14.67865c0,-0.33361 46.34882,26.02124 41.16052,-10.34178c-5.1883,-36.36302 -73.05822,-45.68795 -86.12579,-4.33687z" id="svg_15" stroke="#000" stroke-width="4"/>
  <path fill="none" stroke="#000" opacity="NaN" d="m14.34243,38.33908c-4.81649,10.77976 8.94491,11.23847 13.99075,9.86233c5.04585,-1.37614 9.38328,-10.91848 5.04585,-13.53204c-4.33744,-2.61356 -14.22011,-7.11006 -19.0366,3.66971z" id="svg_18" stroke-width="4"/>
  <path fill="none" opacity="NaN" d="m43.84612,17.52072c-5.55519,12.70618 11.52646,13.85171 17.34618,12.22965c5.81973,-1.62207 8.72959,-14.25952 5.81973,-16.15192c-2.90986,-1.89241 -17.61072,-8.7839 -23.16591,3.92227z" id="svg_19" stroke="#000" stroke-width="4"/>
  <path fill="none" opacity="NaN" d="m131.03597,39.24581c5.5491,11.91595 -10.30547,12.42302 -16.11881,10.90183c-5.81335,-1.52119 -5.64787,-13.03235 -2.7412,-14.80706c2.90667,-1.77472 13.31091,-8.01071 18.86001,3.90523z" id="svg_20" stroke="#000" stroke-width="4"/>
  <path fill="none" opacity="NaN" d="m104.75273,21.25407c5.90113,12.84697 -10.95926,13.39366 -17.14139,11.75362c-6.18214,-1.64004 -6.43498,-12.52905 -3.34391,-14.44242c3.09107,-1.91338 14.58416,-10.15817 20.4853,2.6888z" id="svg_21" stroke="#000" stroke-width="4"/>
  <path fill="#ff007f" stroke-width="35" id="svg_32" d="m25.51769,67.67348c4.66745,1.22809 10.89071,4.29836 23.33726,10.43892c6.2233,3.07028 9.33494,3.68436 10.11283,3.68436c0.77791,0 0.2278,-0.17986 0.77791,-0.61408c0.55007,-0.43423 5.44539,0 8.557,0c7.00119,0 12.41023,-0.30644 18.66984,-0.61405c3.88202,-0.19076 6.29841,-0.28634 10.89071,0.61405c4.77487,0.93615 11.66862,3.68436 14.78028,3.68436c4.66745,0 11.64884,-0.62667 14.78028,-3.68436c3.28064,-3.20338 3.19629,-10.34696 -8.55703,-9.82488c-6.40465,0.28449 -21.57109,10.5795 -24.89305,13.50925c-0.73372,0.64705 2.79805,-0.04735 7.77907,-7.98274c10.59453,-16.87836 7.44505,-27.49605 2.33372,-30.08877c-7.4617,-3.78495 -18.33519,-2.4955 -43.56289,3.68438c-16.69584,4.08988 -24.75552,10.32104 -30.33846,15.96543c-1.35406,1.36896 -1.55581,2.45623 -0.77792,2.45623c1.55583,0 8.28497,-0.03741 18.66984,-6.14056c11.50535,-6.76165 20.99885,-18.93474 21.78144,-24.56225c1.10348,-7.93506 -0.43982,-11.14571 1.55581,-12.28111c0.63108,-0.35905 0.53872,-0.1142 1.55583,-1.22813c0.64324,-0.70448 2.33372,-1.84215 3.11164,-3.68432l2.33372,-1.22809l0.77791,-1.22815l0.77792,0" opacity="0.64" stroke="#e95278" filter="url(#svg_32_blur)"/>
  <path opacity="0.95" fill="none" stroke="#e95278" stroke-width="21" id="svg_33" d="m39.63866,81.80463c1.79373,0 7.73915,1.46329 13.45296,0c5.08467,-1.30219 10.76236,-7.17493 11.65923,-8.96863c0.89687,-1.79373 1.29991,-3.36737 -1.34529,-4.48434c-3.33063,-1.4064 -8.96864,1.79373 -13.9014,5.82962c-4.93274,4.03589 -7.20004,6.53799 -8.07176,9.41708c-1.04768,3.46027 -0.7242,5.99646 0.44843,7.62335c0.74162,1.02893 4.96001,1.56378 9.41707,0.89685c6.78416,-1.01514 15.02646,-1.91446 19.28258,-3.58746c6.37053,-2.50412 8.33401,-7.25034 9.86549,-10.76236c0.80162,-1.83829 0.55467,-1.73221 0,-0.89685c-2.28688,3.44424 -4.77528,5.46896 -5.82961,7.1749c-1.17877,1.90729 -1.34529,2.24216 -1.34529,2.24216c0.44843,-0.44843 0.66647,-0.81781 0.89685,-1.79373c0.10303,-0.43643 0,-0.89685 -2.24216,-3.13901c-2.24216,-2.24216 -5.4024,-4.45645 -7.17491,-5.82962c-2.2699,-1.75848 -6.22806,-4.12292 -8.5202,-5.3812c-1.75798,-0.96503 -2.6906,-0.89685 -2.6906,-0.89685c-1.79372,0 -3.59309,-0.15894 -5.82961,0c-3.16292,0.22479 -4.5087,2.38831 -7.62335,1.79373c-3.55125,-0.67792 -8.25783,-4.41257 -9.86549,-11.65924c-0.58273,-2.62671 0.75005,-6.14731 1.79372,-8.96863c0.64148,-1.7341 1.76846,-2.77509 3.13904,-3.13904c2.20996,-0.58688 4.5455,-0.86377 8.96863,0c7.79892,1.52301 11.48885,2.99326 13.9014,4.48431c3.23679,2.00046 5.19859,4.53198 8.07178,6.7265c2.01593,1.53973 3.58745,3.58743 5.38118,5.38116c1.79373,1.79373 3.0965,3.35818 7.17491,4.03589c4.0058,0.66562 12.15742,-0.79996 16.59198,-3.13901c4.08365,-2.15396 9.2986,-7.28049 12.10767,-10.31393c2.15446,-2.32654 3.61143,-2.93298 4.48431,-3.13904c0.97591,-0.23038 1.34529,-0.44843 1.79373,-0.44843c0.89685,0 0.93097,-0.1716 1.34528,0c0.58591,0.24268 0.44846,1.79373 0.89688,2.69058l0,0.89688l0,0.44843l0,0" filter="url(#svg_33_blur)"/>
  <path id="svg_1" d="m-138.20962,-46.8791c-3.84615,37.76217 3.14685,33.91603 2.91996,33.60145c0.22689,0.31457 0.92619,-71.36363 -2.91996,-33.60145z" opacity="NaN" stroke-width="0" stroke="#000" fill="#000000"/>
  <path stroke="#0a0a0a" d="m163.16369,39.825c-0.1868,1.38358 -0.64594,2.8394 -1.49439,5.25762c-1.00465,2.86338 -2.43962,7.46403 -3.17559,9.9618c-0.5691,1.93144 -1.46608,4.71666 -1.868,6.6412c-0.34916,1.67193 -1.23476,4.61703 -1.86799,6.6412c-0.91932,2.93867 -1.32967,4.22296 -1.68119,5.53433c-0.65037,2.42625 -1.64921,3.50316 -2.4284,6.6412c-0.46946,1.89068 -0.74719,3.3206 -1.1208,3.87403l0,0.27671l0,0.27672" id="svg_8" stroke-width="6" fill="none"/>
  <path stroke="#0a0a0a" d="m238.68804,39.1257c-0.1868,1.38358 -0.64594,2.8394 -1.49439,5.25761c-1.00465,2.86339 -2.43962,7.46403 -3.17559,9.96181c-0.56911,1.93144 -1.46608,4.71666 -1.868,6.6412c-0.34916,1.67193 -1.23476,4.61703 -1.86799,6.6412c-0.91932,2.93867 -1.32967,4.22296 -1.68119,5.53433c-0.65037,2.42625 -1.64922,3.50316 -2.4284,6.6412c-0.46946,1.89068 -0.74719,3.3206 -1.12079,3.87403l0,0.27672l0,0.27672" id="svg_12" stroke-width="6" fill="none"/>
  <path stroke="#0a0a0a" d="m292.18445,40.5243c-0.1868,1.38358 -0.64594,2.8394 -1.49439,5.25761c-1.00465,2.86339 -2.43962,7.46403 -3.17559,9.96181c-0.56911,1.93144 -1.46608,4.71666 -1.868,6.6412c-0.34916,1.67193 -1.23476,4.61703 -1.86799,6.6412c-0.91932,2.93867 -1.32967,4.22296 -1.68119,5.53433c-0.65037,2.42625 -1.64922,3.50316 -2.4284,6.6412c-0.46946,1.89068 -0.74719,3.3206 -1.12079,3.87403l0,0.27672l0,0.27672" id="svg_14" stroke-width="6" fill="none"/>
  <path stroke="#0a0a0a" d="m329.59697,39.1257c-0.1868,1.38358 -0.64594,2.8394 -1.49439,5.25761c-1.00465,2.86339 -2.43962,7.46403 -3.17559,9.96181c-0.56911,1.93144 -1.46608,4.71666 -1.868,6.6412c-0.34916,1.67193 -1.23476,4.61703 -1.86799,6.6412c-0.91932,2.93867 -1.32967,4.22296 -1.68119,5.53433c-0.65037,2.42625 -1.64922,3.50316 -2.4284,6.6412c-0.46946,1.89068 -0.74719,3.3206 -1.12079,3.87403l0,0.27672l0,0.27672" id="svg_16" stroke-width="6" fill="none"/>
  <path transform="rotate(11 348.112 61.0559)" stroke="#0a0a0a" d="m357.35191,34.4708c-0.25315,1.63098 -0.87538,3.34713 -2.02521,6.19775c-1.36151,3.37541 -3.30619,8.79871 -4.30358,11.74313c-0.77126,2.27681 -1.98684,5.56007 -2.53153,7.82874c-0.47318,1.9709 -1.67336,5.44262 -2.53151,7.82874c-1.24587,3.46415 -1.80198,4.97809 -2.27836,6.52395c-0.88139,2.8601 -2.23504,4.12958 -3.29099,7.82874c-0.63622,2.22876 -1.0126,3.91437 -1.5189,4.56676l0,0.3262l0,0.3262" id="svg_17" stroke-width="6" fill="none"/>
  <path transform="rotate(6 188.688 58.3564)" stroke="#0a0a0a" d="m195.11261,37.07592c-0.17601,1.30555 -0.60864,2.67927 -1.4081,4.9611c-0.94664,2.7019 -2.29876,7.04308 -2.99223,9.39999c-0.53625,1.82251 -1.38143,4.45065 -1.76014,6.26665c-0.329,1.57764 -1.16346,4.35664 -1.76013,6.26665c-0.86624,2.77294 -1.25289,3.9848 -1.58412,5.22221c-0.61282,2.28942 -1.55399,3.30559 -2.28818,6.26665c-0.44235,1.78405 -0.70405,3.13333 -1.05608,3.65555l0,0.26111l0,0.26111" id="svg_23" stroke-width="6" fill="none"/>
  <path transform="rotate(67 237.464 42.9719)" stroke="#0a0a0a" d="m243.9269,26.07575c-0.17706,1.03657 -0.61225,2.12726 -1.41646,3.93897c-0.95226,2.14523 -2.31241,5.592 -3.01,7.46331c-0.53943,1.44702 -1.38963,3.53368 -1.77059,4.97553c-0.33095,1.2526 -1.17038,3.45904 -1.77059,4.97554c-0.87137,2.20162 -1.26033,3.1638 -1.59352,4.14628c-0.61646,1.81772 -1.56323,2.62454 -2.30178,4.97553c-0.44498,1.41648 -0.70823,2.48777 -1.06234,2.9024l0,0.20731l0,0.20731" id="svg_24" stroke-width="6" fill="none"/>
  <path transform="rotate(36.1767 205.369 41.6602)" stroke="#0a0a0a" d="m213.76066,33.47544c-0.22992,0.50213 -0.79506,1.03048 -1.83937,1.9081c-1.23657,1.03918 -3.0028,2.70884 -3.90866,3.61534c-0.70048,0.70096 -1.80452,1.71177 -2.29921,2.41022c-0.42976,0.60678 -1.51981,1.67561 -2.29921,2.41023c-1.13154,1.0665 -1.63661,1.5326 -2.06928,2.00852c-0.80051,0.88054 -2.02995,1.27137 -2.989,2.41023c-0.57782,0.68616 -0.91968,1.20511 -1.37951,1.40596l0,0.10043l0,0.10042" id="svg_25" stroke-width="6" fill="none"/>
  <path transform="rotate(36.1767 198.376 61.2405)" stroke="#0a0a0a" d="m206.76766,53.05583c-0.22992,0.50213 -0.79505,1.03048 -1.83937,1.9081c-1.23656,1.03917 -3.0028,2.70884 -3.90866,3.61534c-0.70048,0.70095 -1.80451,1.71176 -2.29921,2.41022c-0.42976,0.60677 -1.51981,1.67561 -2.29922,2.41022c-1.13153,1.0665 -1.63661,1.5326 -2.06928,2.00852c-0.80051,0.88054 -2.02994,1.27137 -2.98899,2.41023c-0.57782,0.68616 -0.91968,1.20511 -1.37951,1.40596l0,0.10042l0,0.10043" id="svg_26" stroke-width="6" fill="none"/>
  <path transform="rotate(36.1767 353.97 64.0377)" stroke="#0a0a0a" d="m362.36181,55.85303c-0.22992,0.50213 -0.79505,1.03048 -1.83937,1.9081c-1.23656,1.03917 -3.0028,2.70884 -3.90866,3.61534c-0.70048,0.70095 -1.80451,1.71176 -2.29921,2.41022c-0.42976,0.60677 -1.51981,1.67561 -2.29922,2.41022c-1.13153,1.0665 -1.63661,1.5326 -2.06928,2.00852c-0.80051,0.88054 -2.02994,1.27137 -2.98899,2.41023c-0.57782,0.68616 -0.91968,1.20511 -1.37951,1.40596l0,0.10042l0,0.10043" id="svg_27" stroke-width="6" fill="none"/>
  <path transform="rotate(36.1767 330.893 42.5341)" stroke="#0a0a0a" d="m341.7219,32.35075c-0.29669,0.62475 -1.02592,1.28211 -2.37349,2.37404c-1.59564,1.29293 -3.87477,3.37031 -5.04367,4.49817c-0.90389,0.87212 -2.32851,2.12976 -2.96687,2.99877c-0.55456,0.75494 -1.96114,2.08478 -2.96688,2.99877c-1.46011,1.32693 -2.11186,1.90685 -2.67017,2.49898c-1.03297,1.09556 -2.6194,1.58183 -3.85695,2.99879c-0.74561,0.85371 -1.18674,1.49939 -1.7801,1.74928l0,0.12494l0,0.12495" id="svg_28" stroke-width="6" fill="none"/>
  <path transform="rotate(36.1767 318.306 79.9466)" stroke="#0a0a0a" d="m329.13451,69.76328c-0.29669,0.62474 -1.02592,1.28211 -2.37349,2.37404c-1.59564,1.29292 -3.87477,3.37031 -5.04368,4.49817c-0.90389,0.87211 -2.32851,2.12975 -2.96686,2.99877c-0.55456,0.75494 -1.96114,2.08478 -2.96688,2.99878c-1.46011,1.32692 -2.11186,1.90684 -2.67017,2.49898c-1.03296,1.09556 -2.6194,1.58182 -3.85695,2.99878c-0.74561,0.85372 -1.18674,1.49939 -1.78009,1.74928l0,0.12495l0,0.12495" id="svg_29" stroke-width="6" fill="none"/>
  <path transform="rotate(-39 362.361 60.7159)" stroke="#0a0a0a" d="m377.74256,42.66105c-0.42141,1.10765 -1.45718,2.27315 -3.37123,4.20911c-2.2664,2.29231 -5.5036,5.97547 -7.16388,7.97514c-1.28386,1.54623 -3.30734,3.77599 -4.21403,5.31674c-0.78768,1.33849 -2.78554,3.69626 -4.21406,5.31676c-2.07389,2.3526 -2.99962,3.38078 -3.79262,4.43063c-1.46718,1.9424 -3.72051,2.80453 -5.47829,5.31676c-1.05904,1.51362 -1.68561,2.65838 -2.52838,3.10143l0,0.22153l0,0.22153" id="svg_30" stroke-width="6" fill="none"/>
  <path transform="rotate(-18 297.779 50.6991)" stroke="#000" d="m291.41738,40.44717c0.53011,0 8.34525,1.67926 12.72293,3.46169c2.05913,0.8384 2.87111,1.26779 3.7109,2.13027c0.73652,0.75644 0.54894,1.73197 2.12048,2.92913c0.41268,0.31438 0.53011,1.06514 0.53011,1.06514c0,0.26629 0,0.53257 0,2.39656c0,1.86399 -1.06022,2.92913 -2.12048,3.99426c-1.06026,1.06514 -2.77543,1.52735 -6.36149,3.19541c-2.2003,1.02348 -4.24101,1.33142 -5.30123,1.33142c-1.06026,0 -2.12053,0 -3.18075,0c-0.53016,0 -2.12048,0 -2.65064,0c-0.53011,0 -1.59037,0 -1.59037,0c-1.06022,0 -2.12048,-0.26628 -3.18075,-0.26628l-1.06022,-0.26628l0,0" id="svg_34" stroke-width="5" fill="none"/>
  <path transform="rotate(-18 168.059 51.7481)" stroke="#000" d="m161.69732,41.49612c0.53011,0 8.34524,1.67925 12.72293,3.46169c2.05913,0.8384 2.87111,1.2678 3.7109,2.13027c0.73652,0.75644 0.54894,1.73198 2.12048,2.92913c0.41268,0.31438 0.53011,1.06513 0.53011,1.06513c0,0.26629 0,0.53257 0,2.39656c0,1.86399 -1.06021,2.92913 -2.12048,3.99426c-1.06026,1.06514 -2.77542,1.52735 -6.36149,3.19541c-2.2003,1.02348 -4.24101,1.33142 -5.30123,1.33142c-1.06026,0 -2.12052,0 -3.18074,0c-0.53016,0 -2.12048,0 -2.65064,0c-0.53011,0 -1.59037,0 -1.59037,0c-1.06022,0 -2.12048,-0.26628 -3.18075,-0.26628l-1.06021,-0.26628l0,0" id="svg_35" stroke-width="5" fill="none"/>
  <path d="m208.26851,75.34941c-0.34966,0.34966 -0.87131,0.84256 -1.74826,1.74825c-2.09227,2.16084 -3.10786,2.86506 -4.8951,3.84615c-0.68536,0.37623 -1.78566,0.37798 -3.14684,0.6993c-0.76094,0.17963 -2.44756,1.3986 -2.79721,1.3986c-1.04895,0 -1.39859,0 -2.0979,0.34965l-0.6993,0" id="svg_41" stroke-width="5" stroke="#000" fill="none"/>
  <path d="m179.94687,77.44731c0,0.6993 0.19914,1.4451 0.69931,2.7972c0.54251,1.46656 1.39859,2.09789 1.74825,2.44755c0.34964,0.34965 0.6993,0.34966 0.6993,0.34966c0,0.34965 0.34966,0.6993 0.6993,0.6993c0.34966,0 0.69931,0 0.69931,0c0.34964,0 0.6993,0 1.39859,0c0.69931,0 1.04895,0 1.74825,0c1.04895,0 1.00648,-0.52219 2.0979,-0.6993c0.34514,-0.05601 1.04895,0 1.74826,0c0,0 0.6993,0 1.04895,0c0.34964,0 0.24245,-0.16042 0.6993,-0.34966c0.32303,-0.1338 0.34964,-0.34965 0.6993,-0.34965l0.34966,0l0,0l0.34964,0" id="svg_42" stroke-width="5" stroke="#000" fill="none"/>
  <path d="m195.33147,82.34241c-0.69931,0 -1.39861,0 -2.0979,0c-1.39861,0 -2.05544,0.52219 -3.14685,0.6993c-1.38054,0.22404 -2.0979,0 -2.44756,0c-0.6993,0 -1.39859,0 -1.74825,0c0,0 -0.28801,-0.17002 -1.04895,-0.34966c-0.34029,-0.08033 -0.40288,0.26762 -1.04895,0c-0.45683,-0.18923 -0.5921,-0.85972 -1.04895,-1.04894c-0.32303,-0.1338 -0.91513,-0.02662 -1.04893,-0.34966c-0.18924,-0.45684 -0.69931,-1.04895 -0.69931,-1.04895c-0.34964,-0.34965 -0.34964,-0.6993 -0.34964,-1.04895c0,-0.34965 0,-0.34965 0,-0.6993c0,-0.34965 0,-0.6993 0,-1.04895c0,0 0,-0.34965 0,-0.6993c0,-0.34965 0,-0.6993 0.34964,-0.6993c0.34966,0 0.26932,0.70865 0.34966,1.04895c0.17963,0.76093 0.29366,1.40311 0.34966,1.74825c0.17711,1.09141 0.41017,1.3471 0.6993,1.74825c0.45714,0.63425 0.34964,1.04895 0.6993,1.3986l0,0" id="svg_46" stroke-width="5" stroke="#000" fill="none"/>
  <path d="m158.37442,42.67178c0.4651,-0.23255 0.92039,-0.90242 2.32552,-1.39531c0.21945,-0.07698 0.76576,-0.53322 0.93021,-0.69766c0.16444,-0.16444 0.69766,-0.23255 0.93022,-0.23255c0.23254,0 0.89595,-0.50536 1.16275,-0.69766c0.42186,-0.30406 0.88924,-0.34563 1.39532,-0.4651c0.679,-0.16029 1.16277,0 1.62787,0c1.62787,0 2.55807,0 4.41849,0c0.93022,0 2.33453,-0.11176 3.02319,0c0.72589,0.1178 1.52812,0.62311 2.55807,1.16276c0.65138,0.3413 1.59361,0.2728 1.86041,0.4651c0.84369,0.60811 1.86043,0.46511 2.09297,0.69766c0.4651,0.46511 0.66341,0.50536 0.93021,0.69766c0.42186,0.30406 0.79507,0.79507 1.16277,1.16276c0.36769,0.3677 0.4651,0.69766 0.4651,0.69766c0,0.23255 0,0.4651 0,0.69765c0,0.23256 0,0.23256 0,0.69766c0,0.46511 0,0.46511 0,1.16276c0,0.46511 -0.23254,1.62786 -0.4651,2.09297c-0.23254,0.4651 -0.33925,0.85891 -0.4651,1.16276c-0.17799,0.4297 -0.4651,0.93021 -0.69766,1.39532c-0.23254,0.4651 -0.56252,0.79507 -0.93021,1.16276c-0.7354,0.7354 -0.91348,1.30486 -1.39531,1.86042c-0.3407,0.39284 -1.16277,1.62787 -2.55807,3.02318c-0.93022,0.93021 -1.9557,1.98138 -2.79063,2.79063c-1.06924,1.03635 -2.06364,2.1291 -3.48828,3.25573c-0.91205,0.72126 -1.39532,1.16276 -1.62787,1.39531c-0.69765,0.69766 -1.32997,1.23491 -2.09297,1.86042c-0.64844,0.53159 -1.46742,0.77615 -2.09297,1.16277c-0.55952,0.3458 -0.96115,0.36499 -1.86043,0.69765c-0.4877,0.18041 -0.93021,0.23255 -1.62787,0.23255c-0.4651,0 -0.93021,0 -1.62787,0c-0.4651,0 -1.16275,0 -1.39531,0c-0.23254,0 -0.62637,-0.1067 -0.93021,-0.23255c-0.21486,-0.089 -0.69766,0 -0.93021,0l0,0l-0.23256,0l-0.23254,0" id="svg_47" stroke-width="5" stroke="#000" fill="none"/>
  <path d="m210.69872,74.06637c-0.4651,0 -0.65991,-0.03774 -1.39531,0.69765c-0.7354,0.7354 -1.54837,1.48067 -2.79063,2.55807c-0.87842,0.76185 -1.76068,1.32077 -2.79063,1.86042c-0.65138,0.34129 -2.13383,0.60628 -3.25572,1.16277c-1.21477,0.60255 -1.64575,0.86774 -2.55809,1.16276c-1.19157,0.38531 -1.89134,0.59755 -2.79062,0.93021c-1.46312,0.54124 -2.06473,0.81241 -2.79063,0.93021c-0.68866,0.11176 -0.69766,0 -1.16277,0c-1.16275,0 -2.32552,0 -4.18594,0c-1.39531,0 -2.60785,0.42744 -4.41849,0c-0.50609,-0.11947 -1.03691,-0.16126 -1.16277,-0.4651c-0.08899,-0.21485 -0.33925,-0.16126 -0.4651,-0.4651c-0.08899,-0.21485 -0.1067,-0.16125 -0.23256,-0.4651c-0.08899,-0.21485 0,-0.46511 0,-0.69766c0,0 0,-0.23255 0,-0.4651c0,-0.23255 0,-0.4651 0,-0.4651c0,-0.69765 0,-0.93021 0,-1.16277c0,-0.4651 0,-0.69765 0,-0.69765c0,-0.23255 0.06812,-0.53322 0.23256,-0.69765c0.16443,-0.16444 0.33925,-0.16125 0.4651,-0.46511c0.08899,-0.21485 0.23254,-0.4651 0.23254,-0.69765c0,0 0.23256,0 0.23256,0c0,0.4651 -0.07149,0.74091 0.23256,1.16277c0.19229,0.26679 0.05455,0.73306 0.23254,1.16276c0.25171,0.60769 0.60133,1.06644 0.93021,1.39532c0.16444,0.16444 0.39381,0.33925 0.69766,0.4651c0.21486,0.089 0.67622,0.34795 1.62787,0.4651c0.69243,0.08524 1.39531,0 2.09297,0c0.93021,0 1.62787,0.23255 2.55807,0.23255c0.4651,0 0.4651,0 1.39531,0c0.93022,0 1.85291,-0.25974 3.4883,-0.69765c0.92621,-0.24802 1.86041,-0.4651 2.32552,-0.69765c0.93022,-0.4651 1.59962,-0.57986 2.32553,-0.69766c0.45909,-0.0745 0.73306,-0.05456 1.16277,-0.23255c0.30383,-0.12585 0.69765,-0.69765 0.93021,-0.69765c0.4651,0 0.94556,-0.2041 1.39531,-0.4651c0.72522,-0.42085 1.46941,-0.74913 2.79063,-1.39532c0.75322,-0.36839 1.73544,-0.40699 2.32553,-1.16277c0.14311,-0.1833 0.93021,-0.4651 1.16275,-0.69765c0.23256,-0.23256 0.69766,-0.93021 0.93022,-0.93021l0,-0.23255l0.23254,-0.23256" id="svg_48" stroke-width="5" stroke="#000" fill="none"/>
  <path d="m148.83977,85.22888c0.23254,-0.4651 0.54536,-2.36668 0.93021,-3.48828c0.16876,-0.49187 0.4651,-0.69766 0.4651,-0.93021c0,-0.23255 0,-0.4651 0.23256,-0.69765l0,-0.23255l0.23254,-0.23255l0,-0.23256" id="svg_49" stroke-width="5" stroke="#000" fill="none"/>
  <path d="m220.46593,43.13689c1.86041,0 7.48213,0.5806 11.62761,0c3.35329,-0.46964 6.46858,-1.85867 8.3719,-2.09297c1.84648,-0.22731 2.55807,0 3.25572,0c0.93022,0 1.86043,0 3.02319,0c0.93021,0 1.62787,0 2.09297,0c0.23254,0 0.4651,0 0.69765,0c0.23256,0 0.69766,0.23255 0.69766,0.23255c0.69766,0 1.16277,0.23255 1.62787,0.4651l0.23254,0" id="svg_50" stroke-width="5" stroke="#000" fill="none"/>
  <path d="m293.4874,42.43923c-0.23254,1.39532 -0.47305,3.95168 -1.62787,9.3021c-0.70248,3.2547 -1.00525,5.92731 -1.86041,8.13934c-0.48898,1.26478 -1.01001,2.52925 -1.39532,3.72084c-0.29501,0.91233 -0.69766,2.55808 -0.93021,3.25573l0,0.23255l0,0.23255" id="svg_60" stroke-width="5" stroke="#000" fill="none"/>
  <path d="m278.13892,86.39165c0,-0.4651 0.80847,-1.8191 1.62787,-4.18594c1.34811,-3.8941 2.44629,-7.10638 3.02319,-7.90678c0.30405,-0.42184 0.6785,-1.02019 0.93021,-1.62787c0.44498,-1.07426 0.68723,-1.98814 0.93021,-2.79063c0.06738,-0.22257 0.591,-0.86108 0.93021,-1.62787c0.38791,-0.87688 0.7951,-2.19038 1.16278,-2.55807c0.36768,-0.3677 1.01071,-1.09428 1.39529,-1.62787c0.30408,-0.42186 0.69766,-0.69766 0.93024,-0.93021l0,-0.23256l0.23254,-0.23255l0,0" id="svg_61" stroke-width="5" stroke="#000" fill="none"/>
  <path d="m309.30096,49.88091c0,0 0.17834,0.09807 -1.16278,2.32553c-1.03186,1.71383 -2.35278,3.22947 -3.02316,3.95339c-1.45676,1.57312 -2.80759,2.53062 -3.9534,3.25573c-1.41705,0.89676 -1.90668,1.28656 -2.55807,1.62787c-1.02994,0.53965 -1.59723,0.99732 -2.55807,1.39531c-0.67941,0.28143 -1.13211,0.76476 -2.09299,1.16276c-0.67938,0.28141 -1.62787,0.93022 -2.3255,1.39531c-0.69766,0.46511 -1.63409,0.87678 -1.86044,0.93021c-0.50607,0.11947 -0.62634,0.33925 -0.93021,0.4651c-0.42969,0.17797 -0.69766,0 -0.93021,0c-0.46509,0 -0.93021,0 -1.16275,0c-0.23254,0 -0.46512,0 -0.69766,0l-0.23254,0" id="svg_62" stroke-width="5" stroke="#000" fill="none"/>
  <path d="m333.16083,85.92654c0.23257,-0.23255 0.62613,-0.56067 1.39532,-1.62787c0.30405,-0.42184 0.79276,-1.11076 1.39532,-2.32552c1.11298,-2.2438 1.50995,-3.54272 2.09296,-4.65105c0.39035,-0.74208 0.87329,-1.42601 1.39532,-2.32552c0.42087,-0.72521 0.63116,-1.67711 1.16275,-2.32552c0.20853,-0.25434 0.23257,-0.69765 0.23257,-0.69765c0.23254,-0.46511 0.45779,-1.95625 0.93021,-2.79063c0.64813,-1.14476 1.32419,-1.44835 1.86041,-2.09297c1.1326,-1.36159 1.02982,-2.65651 2.09299,-3.95339c0.41699,-0.50866 1.12442,-1.11015 1.62784,-2.32553c0.08899,-0.21485 0.33926,-0.39381 0.46512,-0.69765c0.08899,-0.21486 0.33926,-0.16125 0.46512,-0.46511c0.08899,-0.21485 0.23254,-0.23255 0.46509,-0.4651c0.23254,-0.23255 0.50836,-0.62617 0.93021,-0.93021c0.26682,-0.1923 0.69766,-1.16276 1.39532,-1.86042c1.16275,-1.16276 2.02878,-2.14477 2.79062,-3.02318c1.29291,-1.49072 2.09299,-2.32553 2.55807,-2.79063c0.46512,-0.46511 0.54037,-0.58608 0.93021,-0.93021c0.6286,-0.55491 1.05792,-1.07123 1.86044,-2.32552c0.28024,-0.43802 1.11072,-1.27151 1.86041,-2.55808c0.63052,-1.08202 1.16275,-2.09297 1.16275,-2.32552c0,-0.23255 0.30069,-0.06812 0.46512,-0.23255c0.16443,-0.16444 0.23254,-0.69766 0.46509,-0.93021c0,0 0,-0.46511 0.23257,-0.93021l0.23254,0l0,0" id="svg_63" stroke-width="5" stroke="#000" fill="none"/>
  <path d="m301.76627,82.2057c0.93021,0 2.79276,0.09484 4.88361,0c2.56598,-0.11639 3.71722,-0.48388 4.88361,-0.69766c1.39136,-0.25502 2.35748,-0.51545 4.18594,-0.93021c0.71716,-0.16267 1.86041,-0.23255 2.3255,-0.23255c0.46512,0 1.39532,-0.23255 2.32553,-0.23255c0.93021,0 1.3988,0.05682 1.86041,0c0.95166,-0.11716 2.07574,-0.58081 3.25574,-0.69766c1.38852,-0.1375 2.06415,-0.0798 3.25574,-0.4651c0.91232,-0.29501 1.90369,-0.16104 2.32553,-0.4651c0.26678,-0.1923 0.46512,-0.23255 0.69766,-0.23255l0,-0.23255l0.23254,0" id="svg_64" stroke-width="5" stroke="#000" fill="none"/>
  <path d="m315.71942,42.90434c1.39529,0 3.26862,0.11382 5.81381,-0.23256c2.57626,-0.3506 5.36282,-0.8169 7.67422,-1.16276c1.17273,-0.17548 1.86041,-0.23255 2.79062,-0.23255c0.46512,0 1.62787,-0.23255 2.32553,-0.23255c0.69766,0 1.62787,0.23255 1.86041,0.23255c0.23254,0 0.69766,0 0.93021,0c0,0 0.23254,0 0.46512,0c0.23254,0 0.46808,-0.03725 0.69766,0c0.72586,0.1178 0.90198,0.34731 1.62787,0.4651c0.22955,0.03725 0.69763,0 1.16275,0c0.23254,0 0.65668,-0.11308 1.16275,-0.23255c0.22635,-0.05344 0.50052,0.17797 0.93021,0c0.30386,-0.12585 0.46512,-0.23255 0.69766,-0.23255c0.23257,0 0.46512,-0.23255 0.69766,-0.23255l0,0l0.23254,0" id="svg_65" stroke-width="5" stroke="#000" fill="none"/>
  <path d="m361.53223,86.1591c0,-0.69766 0.11618,-3.94614 0.23257,-6.74403c0.10632,-2.55586 -0.03552,-4.8932 0.23254,-5.8138c0.2056,-0.70607 0.23254,-1.39532 0.46512,-2.79063c0.23254,-1.39532 0.46509,-2.79063 0.46509,-4.65105c0,-0.93021 0.06204,-2.33598 0.23254,-3.72084c0.11716,-0.95166 0.46512,-1.86042 0.46512,-2.55808c0,-0.93021 -0.0451,-1.8675 0.23254,-3.48829c0.2002,-1.16877 0.58051,-2.07153 0.69766,-3.02318c0.08524,-0.69243 -0.09164,-2.0975 0,-3.02318c0.11685,-1.18002 0.23254,-1.62787 0.23254,-2.55808c0,-1.16276 0,-1.62786 0,-1.86042c0,-0.23256 0,-0.69766 0,-1.86042c0,-0.93021 0,-1.16276 0,-1.86042c0,0 0,-0.46511 0,-0.93021c0,-0.23255 0,-0.69766 0,-0.93021c0,-0.23255 0,-0.93021 0,-1.39531c0,-0.46511 0,-0.46511 0,-0.69766c0,-0.23255 -0.06812,-0.53322 -0.23254,-0.69766c-0.16443,-0.16443 -0.30066,-0.06812 -0.46509,-0.23255c-0.16443,-0.16444 -0.23257,-0.23255 -0.46512,-0.23255c-0.23254,0 -0.23254,0.23255 -0.23254,0.4651c0,0 -0.23257,0.23255 -0.23257,0.46511l0,0.23255" id="svg_68" stroke-width="5" stroke="#000" fill="none"/>
  <path d="m157.58374,64.76427c0.69765,0 1.86041,0 3.02318,0l0.69766,0l0,0l0.23254,0" id="svg_69" stroke-width="5" stroke="#000" fill="none"/>
  <path d="m270.60422,41.27647c-0.69763,0 -1.45413,0.3581 -2.79062,1.16276c-1.71384,1.03186 -2.61282,1.56641 -4.18594,3.02318c-0.4826,0.44691 -1.03821,1.50332 -1.86041,2.32552c-0.8222,0.8222 -1.68109,1.33242 -2.79065,2.32553c-0.49011,0.43867 -1.01572,1.2939 -1.86041,2.09297c-0.60913,0.57622 -1.4328,1.34793 -2.32552,2.09297c-0.79846,0.66638 -2.32553,1.62788 -3.48828,2.79063c-0.69766,0.69766 -1.10587,1.19346 -1.62787,2.09297c-0.84172,1.45042 -1.90063,2.4301 -2.55807,4.18594c-0.4158,1.1105 -0.39407,2.34475 -0.93022,4.18595c-0.2056,0.70606 -0.23254,2.32552 -0.23254,3.25573c0,1.16277 -0.08524,2.5633 0,3.25574c0.11716,0.95165 0.15804,1.40131 0.23254,1.86042c0.1178,0.7259 0.57819,1.12177 0.69766,1.62787c0.10686,0.45266 -0.04099,0.81074 0.4651,0.93021c0.22633,0.05343 0.67094,0.29517 2.79063,1.16277c1.83885,0.75265 3.70642,1.51118 5.11615,1.62786c0.69528,0.05754 1.86041,0.23255 3.25574,0.23255c0.69766,0 1.66327,-0.05458 2.09296,-0.23255c0.30386,-0.12585 1.11838,-1.00495 1.86044,-1.39531c1.10834,-0.58302 1.91364,-0.86734 3.02316,-1.86042c1.22531,-1.09669 2.77908,-2.56744 3.72086,-3.72084c1.14874,-1.40687 1.89743,-2.07851 2.79062,-4.4185c0.97067,-2.543 1.31976,-3.63247 2.09299,-4.88361c0.34579,-0.55951 0.86557,-2.80759 1.62787,-5.58126c0.64343,-2.3411 1.04495,-3.6926 1.16275,-4.4185c0.14899,-0.9182 0,-3.72084 0,-5.34871c0,-1.16276 0,-1.86042 0,-1.86042c-0.23254,-1.39531 -0.23254,-2.79062 -0.46512,-3.25573c-0.23254,-0.4651 -0.18503,-0.71885 -0.93021,-2.32552c-0.65637,-1.41521 -0.88922,-2.90371 -1.39529,-3.02318c-0.22635,-0.05344 -0.2337,-0.02291 -0.46512,0c-1.17999,0.11684 -2.56436,0.67017 -4.65106,1.16276c-0.9332,0.22029 -1.69992,0.31105 -2.3255,0.69766c-0.27979,0.1729 -0.93021,0.69765 -1.39532,0.93021c-0.46512,0.23255 -0.74091,0.62617 -1.16275,0.93021c-0.26682,0.1923 -0.60324,0.5844 -1.16278,0.93021c-0.62558,0.38662 -1.09125,0.74091 -1.39529,1.16276c-0.5769,0.80041 -1.09628,0.97944 -1.62787,1.62786c-0.41702,0.50868 -0.8894,0.95298 -1.16278,1.39532c-0.6113,0.98911 -1.30704,1.26461 -2.55807,2.79063c-0.53159,0.64843 -1.33113,1.67966 -2.09297,2.55808c-0.64644,0.74535 -1.01978,1.24927 -1.62787,2.09297c-0.57689,0.8004 -1.05609,1.55873 -1.39531,2.32552c-0.38791,0.87687 -0.53986,1.81601 -0.93021,2.55808c-0.58302,1.10834 -0.92383,2.011 -1.16277,3.02318c-0.21371,0.90532 -0.30495,2.07781 -0.4651,3.02318c-0.42903,2.53254 -0.58081,3.70358 -0.69766,4.8836c-0.16042,1.61995 0,2.55808 0,3.02319c0,0.4651 0,0.4651 0,0.93021c0,0.23255 0,0.46511 0,0.46511c0.23256,0 0.28711,0.26796 0.4651,0.69765c0.12585,0.30385 0.41167,0.47132 0.4651,0.69765c0.11948,0.5061 0.65685,0.25533 0.93022,0.69766c0.12225,0.19782 0.28929,0.50262 1.39531,0.93021c1.26477,0.48897 2.35646,1.06265 3.25574,1.39532c0.4877,0.18041 1.16277,0.23255 1.86041,0.23255c0.23254,0 0.93021,0 0.93021,0c0.23257,0 0.93021,-0.4651 1.62787,-0.69765c0.69766,-0.23256 2.12289,-0.6456 2.55807,-0.93021c1.52005,-0.99416 2.2641,-2.38026 3.72086,-3.95339c1.11728,-1.20652 1.47379,-1.93251 1.86041,-2.55807c0.51871,-0.83929 1.16275,-1.39532 2.09296,-2.79063c0.46512,-0.69766 0.67667,-1.23439 1.16278,-2.09297c0.47241,-0.83438 0.83008,-2.82156 1.16275,-3.72084c0.36084,-0.97541 0.88135,-2.11121 1.16278,-2.79063c0.39801,-0.96083 1.09094,-3.03988 1.39529,-4.18594c0.18875,-0.71076 0.57986,-1.59962 0.69766,-2.32552c0.14899,-0.9182 0.15805,-1.40132 0.23254,-1.86042c0.1178,-0.72591 0.32764,-0.937 0.46512,-2.32552c0.11685,-1.18002 0.58051,-2.30408 0.69766,-3.25574c0.08524,-0.69243 0.23254,-1.16276 0.23254,-2.55807c0,-0.69766 0,-1.16276 0,-1.16276c0,-0.46511 -0.02695,-2.08456 -0.23254,-2.79063c-0.26807,-0.9206 -0.23254,-0.93021 -0.23254,-1.16276c0,-0.23255 0,-0.23255 -0.23257,-0.23255c-0.23254,0 -0.69766,0 -1.16275,0c-0.46512,0 -0.47714,-0.149 -1.39532,0c-0.72589,0.1178 -0.94266,0.35825 -1.39529,0.4651c-0.5061,0.11947 -0.953,0.65683 -1.39532,0.93021c-0.79129,0.48904 -1.41068,0.20411 -1.86041,0.4651c-0.72522,0.42086 -0.76993,0.5895 -1.16278,0.93021c-0.55557,0.48183 -1.16275,0.4651 -1.62787,0.93021c-0.46509,0.4651 -0.84308,1.0264 -1.86041,1.86042c-0.64844,0.53159 -1.61499,1.14991 -3.72083,3.25573c-1.05295,1.05294 -1.72141,2.68449 -2.79065,3.72084c-0.83493,0.80925 -1.6721,2.06542 -2.09296,2.79063c-1.04402,1.79903 -1.62787,3.02318 -2.32553,4.4185c-0.69766,1.39532 -1.48076,4.22904 -2.09297,6.04636c-0.56541,1.67839 -0.93021,2.55807 -0.93021,2.79063c0,0.4651 0,0.69765 0,2.55807c0,0.93021 0,1.39531 0,1.86042c0,0 0,0.4651 0,0.93021c0,1.16277 0,2.32552 0,2.55807c0,0.23256 0,0.46511 0,0.69766c0,0.23255 0.30066,0.30066 0.4651,0.4651c0.16444,0.16444 0.30066,0.30066 0.4651,0.4651c0.16444,0.16444 0.04326,0.16106 0.4651,0.46511c0.2668,0.1923 1.1073,0.70797 2.32553,1.86041c0.8447,0.79906 1.12851,1.20302 1.39531,1.39532c0.42184,0.30405 0.4651,0.23255 0.93021,0.23255c0.4651,0 0.4651,0 0.69765,0c0.69766,0 0.69766,0 1.16278,0l0.23254,0" id="svg_71" stroke-width="5" stroke="#000" fill="none"/>
  <path d="m35.4937,37.32308c0,0.23255 -0.54901,1.44534 -1.16277,3.02318c-0.37703,0.96926 -1.39531,2.79063 -1.39531,3.72084c0,0 -0.33925,0.16126 -0.4651,0.4651c-0.17799,0.4297 -0.27281,0.43086 -0.46511,0.69766c-0.30405,0.42185 -0.59792,0.85567 -1.62787,1.39531c-0.6514,0.3413 -1.16276,0.69766 -2.09297,1.16276c0,0 -0.42412,0.34563 -0.93021,0.46511c-0.67899,0.16029 -1.16276,0.23255 -1.86042,0.23255c-0.93021,0 -2.32552,0 -3.48829,-0.23255c-1.16276,-0.23255 -2.55808,-0.23255 -3.48829,-0.46511c-0.93021,-0.23255 -1.62787,-0.4651 -2.32552,-0.69765c-0.69766,-0.23256 -0.93021,-0.23256 -0.93021,-0.23256c-0.69766,-0.4651 -1.14745,-0.49866 -1.62787,-0.69765c-0.67942,-0.28142 -0.94265,-0.12569 -1.39531,-0.23255c-0.50609,-0.11947 -0.69766,-0.69766 -0.69766,-0.93021c0,0 0,-0.46511 0,-0.69766c0,-0.4651 0,-1.16276 0,-1.62787c0,-0.4651 -0.17799,-0.73306 0,-1.16276c0.12586,-0.30384 0.64879,-1.181 0.93021,-1.86042c0.199,-0.48042 0.69766,-0.93021 0.93021,-1.39531c0.46511,-0.93021 0.60324,-1.74515 1.16276,-2.79063c0.15518,-0.28996 0.37611,-0.48281 0.46511,-0.69766c0.12586,-0.30384 0.46511,-0.69765 0.69766,-0.93021c0.23255,-0.23256 0.50836,-0.39361 0.93021,-0.69766c0.8004,-0.5769 1.09147,-1.03691 1.39531,-1.16276c0.4297,-0.17799 0.76577,-0.30066 0.93021,-0.46511c0.8222,-0.8222 2.33598,-0.17048 3.72084,0c0.95165,0.11716 1.16276,0.23255 1.86042,0.23255c0.23255,0 0.46511,0 0.93021,0c0.46511,0 0.93021,0 1.39532,0c0.23255,0 0.65667,0.11308 1.16276,0.23255c0.22633,0.05343 0.50836,-0.0715 0.93021,0.23255c0.2668,0.1923 0.883,0.2922 1.16276,0.4651c0.62557,0.38662 0.96561,0.05457 1.39532,0.23256c0.60769,0.25171 0.62636,0.80435 0.93021,0.93021c0.4297,0.17799 0.69765,0.23255 0.93021,0.69765l0.23256,0" id="svg_75" stroke-width="5" stroke="#000" fill="none"/>
  <path d="m32.70307,34.2999c0,0 0,0 0,0c0,0 0.0177,-0.08899 0.23255,0c0.30384,0.12585 0.64276,0.64276 1.16276,1.16276c0.52,0.52 0.97346,1.09126 1.39532,1.39532c0.2668,0.1923 0.23255,0.4651 0.23255,0.69765l0.23255,0l0.23255,0" id="svg_76" stroke-width="5" stroke="#000" fill="none"/>
  <path d="m42.93538,25.4629c0.23255,0 1.15052,1.30694 3.48829,2.55808c1.29676,0.69401 2.77824,0.81364 4.4185,0.93021c0.6959,0.04946 1.62786,0 2.09297,0c0.4651,0 0.93021,0 1.39531,0c0,0 0.69766,0.23255 1.16276,0.23255c0.46511,0 1.16277,0 1.62787,0c1.16276,0 1.86042,0 2.55808,0c0.93021,0 1.68229,0.11792 2.79063,-0.46511c0.74207,-0.39035 1.62179,-0.50255 2.79063,-1.39532c0.66634,-0.50895 1.49272,-1.49272 1.86042,-1.86042c0.3677,-0.3677 0.74979,-0.90761 0.93021,-1.39531c0.33266,-0.89928 0.42957,-2.56769 0.69765,-3.48829c0.2056,-0.70607 0.23255,-0.93021 0.23255,-1.39532c0,-0.46511 0,-1.16276 0,-1.62787c0,-0.46511 0,-0.46511 0,-0.93021c0,-1.16276 0,-1.39532 0,-1.86042c0,-0.46511 -0.23255,-0.46511 -0.4651,-0.69766c-0.4651,-0.4651 -0.98988,-1.26017 -2.09297,-1.62787c-0.66185,-0.22062 -0.90761,-0.51724 -1.39532,-0.69766c-0.89928,-0.33266 -1.36856,-0.76145 -1.86042,-0.93021c-1.1216,-0.38483 -1.6588,-0.36499 -2.55807,-0.69766c-0.48771,-0.18041 -0.90197,-0.34731 -1.62787,-0.46511c-0.22955,-0.03725 -0.69766,0 -1.16276,0c-0.46511,0 -1.16276,0 -1.62787,0c-0.4651,0 -1.16276,0 -1.62787,0c-0.4651,0 -1.16276,0 -1.86042,0c-0.93021,0 -1.39532,0 -2.09297,0.46511c-0.69766,0.46511 -1.01672,0.55466 -1.86042,1.16276c-0.8004,0.5769 -0.87759,1.58955 -2.09297,2.09297c-0.21485,0.08899 -0.46511,0.46511 -0.93021,0.93021c-0.46511,0.46511 -0.62616,0.97347 -0.93021,1.39532c-0.1923,0.2668 -0.5718,0.39381 -0.69766,0.69766c-0.26698,0.64455 0,0.93021 -0.23255,1.39532c-0.23255,0.46511 -0.35825,0.94265 -0.46511,1.39532c-0.11947,0.50609 -0.23255,0.69766 -0.23255,0.93021c0,0.23255 0,0.46511 0,0.69766c0,0.23255 0,0.46511 0,0.93021c0,0.69766 0,0.93021 0,1.16276c0,0.46511 0,0.69766 0,0.69766c0,0.23255 0,0.69766 0,0.93021c0,0 0,0.23255 0,0.69766l0.23255,0.23255l0.23256,0l0,0.23255" id="svg_78" stroke-width="5" stroke="#000" fill="none"/>
  <path d="m81.07397,20.34675c0,0.46511 0,1.39532 0,2.09297c0,0.23255 0,0.46511 0,0.93021c0,0.46511 0.1067,1.55657 0.23256,1.86042c0.089,0.21485 0,0.69766 0.23255,1.16276c0,0 0.13244,0.96114 0.4651,1.86042c0.18041,0.4877 0.26007,0.82048 0.4651,0.93021c0.73927,0.39564 0.58792,1.19028 0.69765,1.39532c0.39565,0.73927 0.68569,0.76712 0.93021,1.16276c0.27338,0.44234 0.69765,0.46511 1.16277,0.69766c0.4651,0.23255 0.93642,0.41168 1.16276,0.46511c0.50609,0.11947 1.63126,0.62891 2.32552,0.69765c1.18002,0.11685 2.07571,0.34826 3.25574,0.46511c1.1571,0.11457 2.09637,0.06874 2.79063,0c1.18002,-0.11684 1.63988,-0.08355 2.55808,-0.23255c0.7259,-0.1178 1.36707,-0.81241 2.09297,-0.93021c0.4591,-0.0745 0.96532,0.36403 1.39531,-0.23256c0.13597,-0.18866 0.66341,-0.2728 0.93021,-0.4651c0.42184,-0.30405 0.68176,-0.24962 0.93021,-0.46511c0.87842,-0.76185 1.39532,-1.16276 1.86042,-1.62787c0.69765,-0.69766 0.96928,-1.37679 1.39532,-2.32553c0.51302,-1.14243 0.4651,-1.39532 0.4651,-1.39532c0.23255,-0.69766 0.23255,-0.93021 0.23255,-1.86042c0,-0.23255 0,-0.93021 0,-1.16276c0,-0.69766 -0.23255,-1.62787 -0.23255,-2.09297c0,-0.46511 -0.12096,-0.54037 -0.4651,-0.93021c-0.55491,-0.62859 -1.39532,-1.62787 -1.86042,-2.09297c-0.23255,-0.23255 -0.37611,-0.25025 -0.4651,-0.46511c-0.25172,-0.60769 -0.62637,-0.80435 -0.93021,-0.93021c-0.4297,-0.17799 -0.97574,-0.38344 -1.86042,-0.93021c-0.98911,-0.6113 -1.21587,-0.43067 -1.86042,-0.69766c-0.30384,-0.12586 -0.65667,-0.57819 -1.16276,-0.69766c-0.679,-0.16029 -1.39532,0 -1.86042,0c-0.93021,0 -1.86042,0 -2.32552,0c-0.69766,0 -0.93021,0 -1.16277,0c-0.69765,0 -0.82536,0.22213 -1.62787,0.46511c-0.22257,0.06739 -0.23255,0.23255 -0.93021,0.23255c-0.23255,0 -0.43686,0.34731 -1.16277,0.46511c-0.22955,0.03725 -0.85892,0.33925 -1.16276,0.46511c-0.4297,0.17799 -0.62637,0.1067 -0.93021,0.23255c-0.21485,0.08899 -0.53322,0.53322 -0.69765,0.69766c-0.32888,0.32888 -0.48787,0.65683 -0.93021,0.93021c-0.19782,0.12226 -0.57819,0.19156 -0.69765,0.69766c-0.05343,0.22633 -0.23255,0.23255 -0.23255,0.69766c0,0.23255 -0.23255,0.23255 -0.23255,0.46511c0,0 -0.23255,0.46511 -0.23255,0.93021c0,0 0.16444,0.30067 0,0.46511c-0.16444,0.16444 -0.46511,0 -0.46511,0.23255c0,0.23255 0,0.23255 0,0.4651l0,0.69766l0,1.86042l0.69766,3.25574" id="svg_79" stroke-width="5" stroke="#000" fill="none"/>
  <path d="m112.70111,34.53245c-0.23255,0.23255 -0.80458,1.1261 -1.39532,3.02318c-0.28507,0.91548 -0.33925,0.85892 -0.4651,1.16276c-0.17799,0.4297 -0.11539,0.67622 -0.23255,1.62787c-0.08524,0.69243 0,1.39531 0,1.86042c0,0.23255 0.05214,0.90761 0.23255,1.39531c0.33266,0.89928 0.17912,1.63409 0.23255,1.86042c0.11947,0.5061 0.23255,0.69765 0.46511,0.93021c0.4651,0.4651 0.39661,1.01072 0.93021,1.39531c0.42184,0.30405 0.69765,0.46511 1.39532,0.93021c0,0 0.60764,0.17874 1.86042,0.69766c0.88585,0.36693 1.62787,0.23255 2.79063,0.23255c0.69765,0 1.62787,0 1.86042,0c0.4651,0 0.93021,0 1.39532,0c0.4651,0 1.12177,0.11308 1.62787,0.23255c0.67899,0.16029 1.16276,0 1.62786,0c0.69766,0 0.93021,0 1.39532,0c0.23255,0 0.75076,0.03443 1.39532,-0.23255c0.30384,-0.12585 0.96561,-0.75222 1.39532,-0.93021c0.60768,-0.25171 1.203,-0.89596 1.39531,-1.16276c0.30406,-0.42184 0.52477,-0.65045 0.69766,-0.93021c0.38663,-0.62556 0.23254,-0.93021 0.23254,-1.39531c0,-0.23255 0.14206,-0.93892 0,-2.09297c-0.11716,-0.95165 -0.23254,-1.16276 -0.23254,-1.39532c0,-0.4651 -0.23256,-0.93021 -0.23256,-1.86042c0,-0.46511 0,-0.46511 0,-1.16277c0,-0.23255 -0.34563,-0.19156 -0.4651,-0.69765c-0.05344,-0.22633 -0.16837,-0.5169 -0.93021,-1.39532c-0.86192,-0.99381 -1.59361,-1.66812 -1.86042,-1.86042c-0.42185,-0.30405 -0.69766,-0.69765 -0.93021,-0.93021c-0.4651,-0.46511 -0.76577,-0.53322 -0.93021,-0.69766c-0.16444,-0.16444 -0.23877,-0.17912 -0.4651,-0.23255c-0.5061,-0.11947 -0.93021,-0.46511 -1.39532,-0.46511c-0.69765,0 -1.39532,-0.46511 -1.86042,-0.46511c0,0 -0.69765,-0.23255 -1.16277,-0.46511c-0.4651,-0.23255 -0.93021,-0.23255 -1.16276,-0.23255c-0.4651,0 -0.93021,0 -1.39532,0c-0.4651,0 -0.97346,-0.0715 -1.39532,0.23255c-0.2668,0.1923 -0.4651,0.23255 -0.93021,0.23255c-0.23255,0 -0.4651,0.23255 -0.93021,0.23255c-0.23255,0 -0.39381,0.33925 -0.69765,0.46511c-0.21485,0.08899 -0.5718,0.16126 -0.69765,0.46511c-0.08899,0.21485 -0.37611,0.48281 -0.4651,0.69765c-0.12586,0.30385 -0.46511,0.46511 -0.46511,0.69766c0,0 0,0.23255 0,0.4651l0,0l0,0.46511" id="svg_81" stroke-width="5" stroke="#000" fill="none"/>
  <path d="m74.79506,83.60102c0,0 -0.85636,0.58675 -2.32552,1.39531c-2.00657,1.10432 -3.87141,2.08658 -4.8836,2.32552c-0.22633,0.05343 -0.4651,0 -0.69766,0c-0.4651,0 -1.67222,0.33073 -2.55807,0.69766c-1.25278,0.51891 -2.21825,1.07124 -2.79063,1.39531c-0.83438,0.47242 -2.09297,0.69766 -2.79063,0.69766l-0.93021,0.4651l-0.69766,0l-0.93021,0" id="svg_82" stroke-width="5" stroke="#000" fill="none"/>
  <path d="m39.21453,93.36822c0.23255,0 1.16276,0 2.09297,0c1.86042,0 2.79063,-0.23255 3.95339,-0.23255c1.16276,0 1.87243,0.149 2.79063,0c0.7259,-0.1178 0.82537,-0.45467 1.62787,-0.69765c0.66772,-0.20217 1.18046,0.089 1.39531,0c0.30384,-0.12585 0.69766,-0.4651 0.93021,-0.4651c0.23255,0 0.39381,-0.33925 0.69766,-0.46511c0.64455,-0.26698 0.97346,0.0715 1.39531,-0.23255c0.2668,-0.1923 0.69766,-0.23255 0.93021,-0.4651c0.23255,-0.23255 0.74091,-0.16106 1.16276,-0.4651c0.2668,-0.1923 0.69766,-0.23255 1.16276,-0.4651c0.46511,-0.23255 0.62636,-0.33925 0.93021,-0.46511c0.64455,-0.26699 0.93021,-0.23255 0.93021,-0.4651l0.46511,0l0.23255,-0.23255l0,0" id="svg_83" stroke-width="5" stroke="#000" fill="none"/>
  <path d="m27.35436,78.71741c0,0.4651 0,1.62787 0,2.79063c0,1.39532 0.21339,1.48528 0.46511,2.09298c0.08899,0.21485 0.34731,0.43686 0.46511,1.16276c0.03725,0.22955 0.11308,0.42412 0.23255,0.93021c0.05343,0.22633 0.53322,0.30067 0.69766,0.4651c0.32888,0.32888 0.50536,0.66341 0.69766,0.93021c0.30405,0.42184 0.54561,0.62917 0.93021,1.16277c0.30405,0.42184 0.46511,0.69765 0.69766,1.16276l0.23255,0" id="svg_84" stroke-width="5" stroke="#000" fill="none"/>
  <path d="m41.30751,92.90311c0,0 -0.23255,0 -0.93021,0c-0.4651,0 -0.93021,0 -1.39531,0c-0.23255,0 -0.65667,-0.34563 -1.16276,-0.4651c-0.22633,-0.05343 -0.46511,0 -0.69766,0c-0.4651,0 -0.47132,-0.17912 -0.69766,-0.23255c-0.50609,-0.11947 -0.62636,-0.33925 -0.93021,-0.4651c-0.4297,-0.17799 -0.71536,-0.14357 -0.93021,-0.23256c-0.30384,-0.12585 -0.25532,-0.65682 -0.69766,-0.93021c-0.39565,-0.24452 -0.85892,-0.5718 -1.16276,-0.69765c-0.21485,-0.089 -0.39381,-0.1067 -0.69766,-0.23255c-0.21485,-0.089 -0.5718,-0.16127 -0.69766,-0.46511c-0.08899,-0.21485 -0.23255,-0.23255 -0.23255,-0.4651l-0.23255,0" id="svg_85" stroke-width="5" stroke="#000" fill="none"/>
  <path d="m26.6567,79.88018c0,-0.46511 0.34795,-1.37387 0.4651,-2.32552c0.14207,-1.15405 0.23255,-1.39532 0.23255,-1.86042c0,-0.23256 0.23255,-0.69766 0.23255,-1.16277c0,-0.23255 0.17912,-0.70387 0.23255,-0.93021c0.11947,-0.5061 0.46511,-1.39532 0.46511,-1.86042c0,-0.69766 0.51724,-1.37272 0.69766,-1.86042c0.33267,-0.89928 0.23255,-1.39532 0.46511,-1.86042c0.23255,-0.4651 0.42785,-0.70067 0.46511,-0.93021c0.1178,-0.7259 0.01308,-1.2178 0.23255,-1.62787c0.39565,-0.73927 0.75731,-0.65044 0.93021,-0.93021c0.38662,-0.62556 0.23255,-0.93021 0.46511,-1.16276c0.23255,-0.23255 0.27281,-0.43086 0.46511,-0.69766c0.30405,-0.42185 0.50536,-0.66341 0.69766,-0.93021c0.30405,-0.42185 0.509,-0.79424 0.69765,-0.93021c0.59658,-0.42999 0.28712,-0.73306 0.46511,-1.16276c0.37757,-0.91153 0.65826,-1.018 0.93021,-1.39531c0.42999,-0.59658 0.44838,-0.6072 0.93021,-1.16276c0.34071,-0.39284 0.69765,-0.93021 0.93021,-1.16276c0.23256,-0.23256 0.56251,-0.56251 0.93021,-0.93021c0.3677,-0.3677 0.50536,-0.66341 0.69765,-0.93021c0.30405,-0.42185 0.23256,-0.69766 0.46511,-0.69766c0.23255,0 0.4651,-0.4651 0.69765,-0.69766c0.23256,-0.23256 0.62616,-0.74091 0.93021,-1.16276c0.1923,-0.2668 0.69765,-0.4651 0.93021,-0.69766c0.23256,-0.23256 0.46511,-0.4651 0.93021,-0.93021c0.23255,-0.23255 0.76577,-0.30066 0.93021,-0.4651c0.32888,-0.32888 0.76577,-0.30066 0.93021,-0.4651c0.16444,-0.16444 0.70388,-0.17913 0.93021,-0.23256c0.5061,-0.11947 0.883,-0.2922 1.16276,-0.4651c0.62556,-0.38662 0.69766,-0.46511 0.93021,-0.46511c0.69766,0 0.85892,-0.33925 1.16276,-0.4651c0.4297,-0.17799 0.39381,-0.33925 0.69766,-0.46511c0.4297,-0.17799 0.7101,-0.12569 1.16276,-0.23255c0.5061,-0.11947 0.39381,-0.5718 0.69766,-0.69765c0.4297,-0.17799 0.71536,-0.14356 0.93021,-0.23256c0.30384,-0.12585 0.53321,-0.53321 0.69765,-0.69765c0.16444,-0.16444 0.50836,0.0715 0.93021,-0.23256c0.2668,-0.1923 0.46511,-0.23255 0.69766,-0.4651l0.23255,0l0,0l0.23255,0" id="svg_86" stroke-width="5" stroke="#000" fill="none"/>
  <path d="m67.81849,42.20668c-0.4651,0 -0.4651,0 -0.93021,0c-0.69765,0 -1.39531,0 -1.39531,0c-0.46511,0 -0.93021,0 -0.93021,0c-0.23255,0 -0.93021,0 -0.93021,0c-0.46511,0 -0.93021,0 -1.16277,0c-0.4651,0 -0.69765,0 -1.16276,0c-0.4651,0 -1.16276,0.23255 -1.39531,0.23255c-0.23255,0 -0.93021,0.23255 -1.16276,0.23255c-0.46511,0 -0.93021,0 -1.16276,0c-0.46511,0 -0.70388,-0.05343 -0.93021,0c-0.5061,0.11947 -0.46511,0.46511 -0.93021,0.46511c-0.23256,0 -0.39381,0.33925 -0.69766,0.4651c-0.21485,0.08899 -0.48787,0.19172 -0.93021,0.46511c-0.19782,0.12226 -0.43085,0.04025 -0.69766,0.23255c-0.42185,0.30405 -0.69765,0.23255 -0.93021,0.4651c-0.23256,0.23256 -0.4651,0.23256 -0.69765,0.46511c-0.23255,0.23255 -0.23255,0.23255 -0.46511,0.23255c-0.23255,0 -0.25026,0.14356 -0.4651,0.23255c-0.30384,0.12586 -0.23255,0.23256 -0.46511,0.23256l0,0" id="svg_87" stroke-width="5" stroke="#000" fill="none"/>
  <path d="m87.818,45.92752c0,0 -1.46392,-0.45232 -3.48829,-0.93021c-0.67899,-0.16029 -0.72042,-0.19173 -1.16277,-0.46511c-0.39565,-0.24452 -0.88922,-0.11308 -1.39531,-0.23255c-0.22633,-0.05343 -0.69766,-0.23255 -1.39532,-0.23255c-0.23255,0 -0.4651,0 -0.93021,0c-0.46511,0 -0.93021,-0.23255 -1.39532,-0.23255c-0.69765,0 -1.18101,0.04887 -1.86042,-0.23256c-0.48042,-0.199 -1.13452,-0.34731 -1.86042,-0.4651c-0.4591,-0.0745 -1.18142,0.16029 -1.86042,0c-0.50609,-0.11947 -1.16276,-0.46511 -1.39532,-0.46511c-0.23255,0 -0.76577,-0.06811 -0.93021,-0.23255c-0.16444,-0.16444 -0.69765,-0.23255 -0.93021,-0.23255c-0.23256,0 -0.46511,0 -0.69766,0c-0.23255,0 -0.4651,0 -0.93021,0c-0.23255,0 -0.4651,0 -0.69766,0c-0.23255,0 -0.4651,0 -0.4651,0c-0.23255,0 -0.4651,0 -0.69765,0c-0.23255,0 -0.4651,0 -0.69766,0c-0.23255,0 -0.4651,0 -1.16276,0c-0.23255,0 -0.46511,0 -0.93021,0l-0.23255,0" id="svg_88" stroke-width="5" stroke="#000" fill="none"/>
  <path d="m108.28262,58.48535c0,0 -1.24928,-0.78721 -2.09297,-1.39531c-1.06721,-0.7692 -1.78913,-1.73457 -2.09297,-1.86042c-0.4297,-0.17799 -0.4651,-0.23255 -0.93021,-0.69766c-0.23255,-0.23255 -0.4651,-0.4651 -0.69765,-0.69766c-0.23255,-0.23255 -0.69765,-0.4651 -0.93021,-0.69765c-0.23255,-0.23255 -0.43086,-0.50536 -0.69766,-0.69766c-0.42184,-0.30405 -0.97346,-0.62616 -1.39531,-0.93021c-0.26681,-0.1923 -0.51822,-0.43068 -1.16277,-0.69766c-0.30384,-0.12585 -0.74091,-0.62616 -1.16277,-0.93021c-0.2668,-0.1923 -0.71535,-0.37611 -0.93021,-0.4651c-0.60769,-0.25171 -0.93021,-0.69766 -1.39532,-0.69766c-0.23255,0 -0.51433,-0.16607 -1.16276,-0.69765c-0.25433,-0.20851 -0.27581,-0.16105 -0.69766,-0.46511c-0.2668,-0.1923 -0.32252,-0.44595 -0.93021,-0.69766c-0.21485,-0.08899 -0.50051,-0.05456 -0.93021,-0.23255c-0.30384,-0.12585 -0.42412,-0.57818 -0.93021,-0.69765c-0.22633,-0.05343 -0.4651,-0.23256 -0.69765,-0.23256c-0.23255,0 -0.57181,0.07129 -0.69766,-0.23255c-0.089,-0.21485 -0.4651,-0.4651 -0.93021,-0.4651c-0.4651,0 -0.76578,-0.30067 -0.93021,-0.46511c-0.16444,-0.16444 -0.53322,0.16444 -0.69765,0c-0.16444,-0.16444 -0.19157,-0.34563 -0.69765,-0.4651c-0.22633,-0.05343 -0.43086,-0.04025 -0.69766,-0.23255c-0.42184,-0.30405 -0.69765,-0.23256 -1.16276,-0.23256c-0.46511,0 -0.93021,0 -1.39532,0c-0.4651,0 -0.69765,0 -1.39532,0c-0.4651,0 -0.93021,0 -1.39531,0c-0.69766,0 -0.93021,0 -0.93021,0c-0.4651,0 -0.69765,0 -0.93021,0c0,0 -0.46511,0 -0.69766,0c-0.23255,0 -0.4651,0 -0.69765,0c-0.4651,0 -0.4651,0 -0.93021,0c-0.46511,0 -0.71011,0.10686 -1.16277,0c-0.50609,-0.11947 -0.73306,-0.05456 -1.16277,-0.23255c-0.30384,-0.12585 -0.93021,-0.23255 -1.39531,-0.23255c-0.23255,0 -0.46511,0 -0.69766,0c-0.23255,0 -0.53322,-0.06811 -0.69765,-0.23255c-0.16444,-0.16444 -0.69765,0 -0.93021,0c-0.23256,0 -0.48281,-0.14356 -0.69766,-0.23256c-0.30384,-0.12585 -0.4651,-0.23255 -0.69765,-0.23255c-0.4651,0 -0.4651,0 -0.69765,0c-0.23256,0 -0.46511,0 -0.69766,0c0,0 -0.23255,0 -0.4651,0c-0.4651,0 -0.51821,0.26698 -1.16277,0c-0.30384,-0.12585 -0.69765,-0.23255 -0.93021,-0.23255c-0.23255,0 -0.23255,0 -0.46511,0c-0.23255,0 -0.4651,0 -0.69765,0c-0.46511,0 -1.16277,0 -1.62787,0c-0.4651,0 -1.16276,0 -1.39531,0c-0.69766,0 -0.69766,0 -1.16277,0l-0.4651,0l0,0" id="svg_89" stroke-width="5" stroke="#000" fill="none"/>
  <path d="m106.8873,57.09004c0.46511,0 0.67011,0.50935 1.39532,0.93021c0.44975,0.261 0.93021,0.4651 1.16277,0.69765c0.23255,0.23255 0.60866,0.48281 0.69765,0.69766c0.12585,0.30384 0.30066,0.53322 0.4651,0.69766c0.16444,0.16444 0.4651,0.4651 0.4651,0.69765c0,0.23256 0.37358,0.35783 0.69766,0.93021c0.47242,0.83438 0.16105,1.20602 0.4651,1.62787c0.1923,0.2668 0.57819,0.65667 0.69765,1.16276c0.05343,0.22633 0.28469,0.67506 0.46511,1.16277c0.33266,0.89928 0.80193,2.51288 1.16276,3.48828c0.33266,0.89928 0.12569,1.40776 0.23255,1.86042c0.11947,0.50609 0.22058,1.23223 0.4651,1.62787c0.27338,0.44234 0.51547,1.19473 0.93021,3.02319c0.32535,1.43435 0.57819,2.28454 0.69765,2.79063c0.05343,0.22633 0,0.4651 0,0.93021c0,0 0.05683,0.4686 0,0.93021c-0.11716,0.95165 -0.07226,2.80929 -0.23255,3.48829c-0.11947,0.50609 -0.42785,1.63458 -0.69765,3.02318c-0.40894,2.10467 -0.31104,2.86272 -0.69766,3.48829c-0.1729,0.27976 -0.06812,0.30067 -0.23255,0.4651c-0.16444,0.16444 -0.23255,0.23255 -0.23255,0.4651c0,0.23255 -0.39361,0.50837 -0.69765,0.93021c-0.1923,0.2668 -0.43085,0.50536 -0.69765,0.69765c-0.42185,0.30405 -0.76713,0.45313 -1.16277,0.69765c-0.44234,0.27338 -0.93195,0.66925 -1.16277,0.69766c-0.95165,0.11716 -1.39531,0.4651 -1.86042,0.4651c-0.69765,0 -1.16276,0 -1.62786,0c-0.46511,0 -0.94266,0.10686 -1.39532,0c-0.50609,-0.11947 -0.93021,-0.4651 -1.62787,-0.4651c-0.23255,0 -0.93321,0.03725 -1.16276,0c-0.72591,-0.1178 -1.86042,-0.93021 -2.55808,-0.93021c0,0 -0.76577,-0.06812 -0.93021,-0.23255c-0.16444,-0.16444 -0.23255,-0.23255 -0.69766,-0.4651c-0.4651,-0.23255 -1.30168,0.25649 -2.09297,-0.23255c-0.44234,-0.27338 -0.96753,-0.60963 -2.32552,-0.93021c-1.01218,-0.23895 -2.81096,-0.88229 -3.95339,-1.39531c-0.47437,-0.21302 -1.18046,-0.37611 -1.39531,-0.4651c-0.30385,-0.12586 -0.69766,-0.46511 -0.93021,-0.46511c-0.23255,0 -0.56168,-0.0439 -0.69765,-0.23255c-0.43,-0.59659 -0.94222,-0.08355 -1.86042,-0.23255c-0.7259,-0.1178 -1.0023,-0.31104 -1.62787,-0.69765c-0.27976,-0.1729 -0.93642,-0.17912 -1.16277,-0.23255c-0.5061,-0.11948 -0.883,-0.29221 -1.16276,-0.46511c-0.62556,-0.38662 -0.93021,-0.4651 -1.62787,-0.4651c0,0 -0.66341,-0.04025 -0.93021,-0.23255c-0.42185,-0.30405 -0.76578,-0.30067 -0.93021,-0.4651c-0.16444,-0.16444 -0.4651,-0.23255 -0.69765,-0.23255c-0.23255,0 -0.42411,-0.34563 -0.93021,-0.46511c-0.22633,-0.05343 -0.11029,-0.03473 -0.23255,-0.23255c-0.27338,-0.44234 -0.62637,-0.33925 -0.93021,-0.4651c-0.21485,-0.089 -0.39381,-0.5718 -0.69766,-0.69765c-0.21485,-0.08899 -0.23255,0 -0.23255,0l0,-0.4651l-0.4651,-0.69766" id="svg_91" stroke-width="5" stroke="#000" fill="none"/>
  <path d="m74.79506,83.36846c0,0 0.23255,0 0.93021,0.69766c0.4651,0.4651 0.95297,1.12193 1.39531,1.39531c0.39565,0.24452 0.39382,0.33926 0.69766,0.46511c0.21485,0.089 0.23255,0 0.4651,0c0.23255,0 0.14355,0.25025 0.23255,0.4651c0.12585,0.30384 0.30067,0.30067 0.4651,0.4651c0.16444,0.16444 0.46511,0 0.46511,0.23255c0,0 0.4651,0.23255 0.69765,0.23255c0.23255,0 0.4651,0 0.69765,0c0.46511,0 0.46511,0 0.69766,0l0.23255,0" id="svg_93" stroke-width="5" stroke="#000" fill="none"/>
 </g>
</svg>