<svg width="445" height="130" xmlns="http://www.w3.org/2000/svg">
 <defs>
  <filter id="svg_32_blur" x="-50%" y="-50%" width="200%" height="200%" opacity="20%">
   <feGaussianBlur in="SourceGraphic" stdDeviation="8"/>
  </filter>
  <filter id="svg_33_blur" x="-50%" y="-50%" width="200%" height="200%" opacity="20%">
   <feGaussianBlur in="SourceGraphic" stdDeviation="10"/>
  </filter>
 </defs>
 <g>
  <title>Layer 1</title>
  <path fill="none" stroke="#000" opacity="NaN" d="m-55.38798,-88.28707c0,63.67524 52.56412,30.76924 52.47852,30.42725c0.0856,0.342 20.17108,21.70952 31.70954,14.01721c11.53847,-7.69231 20.94018,-5.55556 30.34189,-30.76924c9.40171,-25.21368 -56.41028,40.5983 -56.41028,40.17095c0,-0.42735 -3.4188,0.8547 -8.11966,5.55556c-4.70086,4.70086 -39.31625,52.13677 -22.22223,30.76924c17.09402,-21.36753 139.74364,-75.64105 138.88894,-73.07695c-0.8547,2.5641 -166.66672,-80.76926 -166.66672,-17.09402z" id="svg_13"/>
  <path fill="none" opacity="NaN" d="m29.35889,69.62572c-13.06758,41.35107 44.96527,15.01225 44.96527,14.67865c0,-0.33361 46.34882,26.02124 41.16052,-10.34178c-5.1883,-36.36302 -73.05822,-45.68795 -86.12579,-4.33687z" id="svg_15" stroke="#000" stroke-width="4"/>
  <path fill="none" stroke="#000" opacity="NaN" d="m14.34243,38.33908c-4.81649,10.77976 8.94491,11.23847 13.99075,9.86233c5.04585,-1.37614 9.38328,-10.91848 5.04585,-13.53204c-4.33744,-2.61356 -14.22011,-7.11006 -19.0366,3.66971z" id="svg_18" stroke-width="4"/>
  <path fill="none" opacity="NaN" d="m43.84612,17.52072c-5.55519,12.70618 11.52646,13.85171 17.34618,12.22965c5.81973,-1.62207 8.72959,-14.25952 5.81973,-16.15192c-2.90986,-1.89241 -17.61072,-8.7839 -23.16591,3.92227z" id="svg_19" stroke="#000" stroke-width="4"/>
  <path fill="none" opacity="NaN" d="m131.03597,39.24581c5.5491,11.91595 -10.30547,12.42302 -16.11881,10.90183c-5.81335,-1.52119 -5.64787,-13.03235 -2.7412,-14.80706c2.90667,-1.77472 13.31091,-8.01071 18.86001,3.90523z" id="svg_20" stroke="#000" stroke-width="4"/>
  <path fill="none" opacity="NaN" d="m104.75273,21.25407c5.90113,12.84697 -10.95926,13.39366 -17.14139,11.75362c-6.18214,-1.64004 -6.43498,-12.52905 -3.34391,-14.44242c3.09107,-1.91338 14.58416,-10.15817 20.4853,2.6888z" id="svg_21" stroke="#000" stroke-width="4"/>
  <text fill="#000000" stroke="#000" x="142.18445" y="83.02309" id="svg_22" stroke-width="0" font-size="67" font-family="'monospace'" text-anchor="start" xml:space="preserve" font-weight="bold">PETOPIA</text>
  <path fill="#ff007f" stroke-width="35" id="svg_32" d="m25.51769,67.67348c4.66745,1.22809 10.89071,4.29836 23.33726,10.43892c6.2233,3.07028 9.33494,3.68436 10.11283,3.68436c0.77791,0 0.2278,-0.17986 0.77791,-0.61408c0.55007,-0.43423 5.44539,0 8.557,0c7.00119,0 12.41023,-0.30644 18.66984,-0.61405c3.88202,-0.19076 6.29841,-0.28634 10.89071,0.61405c4.77487,0.93615 11.66862,3.68436 14.78028,3.68436c4.66745,0 11.64884,-0.62667 14.78028,-3.68436c3.28064,-3.20338 3.19629,-10.34696 -8.55703,-9.82488c-6.40465,0.28449 -21.57109,10.5795 -24.89305,13.50925c-0.73372,0.64705 2.79805,-0.04735 7.77907,-7.98274c10.59453,-16.87836 7.44505,-27.49605 2.33372,-30.08877c-7.4617,-3.78495 -18.33519,-2.4955 -43.56289,3.68438c-16.69584,4.08988 -24.75552,10.32104 -30.33846,15.96543c-1.35406,1.36896 -1.55581,2.45623 -0.77792,2.45623c1.55583,0 8.28497,-0.03741 18.66984,-6.14056c11.50535,-6.76165 20.99885,-18.93474 21.78144,-24.56225c1.10348,-7.93506 -0.43982,-11.14571 1.55581,-12.28111c0.63108,-0.35905 0.53872,-0.1142 1.55583,-1.22813c0.64324,-0.70448 2.33372,-1.84215 3.11164,-3.68432l2.33372,-1.22809l0.77791,-1.22815l0.77792,0" opacity="0.64" stroke="#e95278" filter="url(#svg_32_blur)"/>
  <path opacity="0.95" fill="none" stroke="#e95278" stroke-width="21" id="svg_33" d="m39.63866,81.80463c1.79373,0 7.73915,1.46329 13.45296,0c5.08467,-1.30219 10.76236,-7.17493 11.65923,-8.96863c0.89687,-1.79373 1.29991,-3.36737 -1.34529,-4.48434c-3.33063,-1.4064 -8.96864,1.79373 -13.9014,5.82962c-4.93274,4.03589 -7.20004,6.53799 -8.07176,9.41708c-1.04768,3.46027 -0.7242,5.99646 0.44843,7.62335c0.74162,1.02893 4.96001,1.56378 9.41707,0.89685c6.78416,-1.01514 15.02646,-1.91446 19.28258,-3.58746c6.37053,-2.50412 8.33401,-7.25034 9.86549,-10.76236c0.80162,-1.83829 0.55467,-1.73221 0,-0.89685c-2.28688,3.44424 -4.77528,5.46896 -5.82961,7.1749c-1.17877,1.90729 -1.34529,2.24216 -1.34529,2.24216c0.44843,-0.44843 0.66647,-0.81781 0.89685,-1.79373c0.10303,-0.43643 0,-0.89685 -2.24216,-3.13901c-2.24216,-2.24216 -5.4024,-4.45645 -7.17491,-5.82962c-2.2699,-1.75848 -6.22806,-4.12292 -8.5202,-5.3812c-1.75798,-0.96503 -2.6906,-0.89685 -2.6906,-0.89685c-1.79372,0 -3.59309,-0.15894 -5.82961,0c-3.16292,0.22479 -4.5087,2.38831 -7.62335,1.79373c-3.55125,-0.67792 -8.25783,-4.41257 -9.86549,-11.65924c-0.58273,-2.62671 0.75005,-6.14731 1.79372,-8.96863c0.64148,-1.7341 1.76846,-2.77509 3.13904,-3.13904c2.20996,-0.58688 4.5455,-0.86377 8.96863,0c7.79892,1.52301 11.48885,2.99326 13.9014,4.48431c3.23679,2.00046 5.19859,4.53198 8.07178,6.7265c2.01593,1.53973 3.58745,3.58743 5.38118,5.38116c1.79373,1.79373 3.0965,3.35818 7.17491,4.03589c4.0058,0.66562 12.15742,-0.79996 16.59198,-3.13901c4.08365,-2.15396 9.2986,-7.28049 12.10767,-10.31393c2.15446,-2.32654 3.61143,-2.93298 4.48431,-3.13904c0.97591,-0.23038 1.34529,-0.44843 1.79373,-0.44843c0.89685,0 0.93097,-0.1716 1.34528,0c0.58591,0.24268 0.44846,1.79373 0.89688,2.69058l0,0.89688l0,0.44843l0,0" filter="url(#svg_33_blur)"/>
  <path id="svg_1" d="m-138.20962,-46.8791c-3.84615,37.76217 3.14685,33.91603 2.91996,33.60145c0.22689,0.31457 0.92619,-71.36363 -2.91996,-33.60145z" opacity="NaN" stroke-width="0" stroke="#000" fill="#000000"/>
 </g>
</svg>